PathFileType	4	(X/Y/Z)	output.trc
DataRate	CameraRate	NumFrames	NumMarkers	Units	OrigDataRate	OrigDataStartFrame	OrigNumFrames
100	100	18	23	m	100	1	5983
Frame#	Time	C7			T8			EL			EM			US			RS			AA			Fore_Clus_1			Fore_Clus_2			Fore_Clus_3			Fore_Clus_4			Hum_Clus_1			Hum_Clus_2			Hum_Clus_3			Hum_Clus_4			Thor_Clus_1			Thor_Clus_2			Thor_Clus_3			Thor_Clus_4			IJ			PX			GH			Thor_Clus_5		
		X1	Y1	Z1	X2	Y2	Z2	X3	Y3	Z3	X4	Y4	Z4	X5	Y5	Z5	X6	Y6	Z6	X7	Y7	Z7	X8	Y8	Z8	X9	Y9	Z9	X10	Y10	Z10	X11	Y11	Z11	X12	Y12	Z12	X13	Y13	Z13	X14	Y14	Z14	X15	Y15	Z15	X16	Y16	Z16	X17	Y17	Z17	X18	Y18	Z18	X19	Y19	Z19	X20	Y20	Z20	X21	Y21	Z21	X22	Y22	Z22	X23	Y23	Z23
0	0.000000	-0.013173	1.590990	-0.045656	-0.044148	1.358891	-0.109829	-0.197815	1.180197	0.095550	-0.165105	1.176951	0.037242	-0.228499	0.922679	0.090765	-0.180322	0.916203	0.119991	-0.184224	1.514663	0.074699	-0.242189	0.970902	0.125773	-0.243708	0.916703	0.128352	-0.219012	0.916958	0.142500	-0.203244	0.972183	0.148637	-0.192053	1.283894	0.153970	-0.231199	1.291701	0.108811	-0.237715	1.354822	0.111273	-0.194018	1.357974	0.150759	0.099953	1.445260	0.092732	0.050595	1.392123	0.135569	0.059513	1.443658	0.111128	0.108876	1.394119	0.108612	0.038171	1.489382	0.048903	0.053744	1.304389	0.092111	-0.148327	1.490269	0.083070	0.046595	1.415026	0.128307
1	0.010000	-0.013206	1.590952	-0.045693	-0.044162	1.358835	-0.109812	-0.197684	1.180188	0.095568	-0.164983	1.176986	0.037253	-0.228560	0.922674	0.090862	-0.180295	0.916174	0.119937	-0.184230	1.514629	0.074704	-0.242113	0.970879	0.125951	-0.243642	0.916708	0.128590	-0.218810	0.916808	0.142315	-0.203127	0.972150	0.148665	-0.192013	1.283856	0.154036	-0.231156	1.291679	0.108857	-0.237696	1.354809	0.111365	-0.193999	1.357940	0.150857	0.099962	1.445261	0.092719	0.050617	1.392121	0.135580	0.059527	1.443651	0.111106	0.108892	1.394104	0.108595	0.038163	1.489370	0.048880	0.053766	1.304388	0.092126	-0.148342	1.490289	0.083232	0.046609	1.415027	0.128308
2	0.020000	-0.013239	1.590915	-0.045730	-0.044172	1.358781	-0.109795	-0.197568	1.180179	0.095595	-0.164878	1.177015	0.037271	-0.228613	0.922664	0.090979	-0.180261	0.916143	0.119904	-0.184237	1.514596	0.074705	-0.242028	0.970846	0.126154	-0.243572	0.916655	0.128810	-0.218712	0.916794	0.142443	-0.202983	0.972108	0.148718	-0.191972	1.283820	0.154091	-0.231127	1.291658	0.108917	-0.237680	1.354785	0.111449	-0.193988	1.357914	0.150938	0.099980	1.445259	0.092682	0.050648	1.392116	0.135569	0.059547	1.443645	0.111086	0.108920	1.394121	0.108566	0.038156	1.489360	0.048858	0.053789	1.304390	0.092141	-0.148355	1.490305	0.083383	0.046650	1.415005	0.128274
3	0.030000	-0.013274	1.590881	-0.045763	-0.044182	1.358730	-0.109778	-0.197469	1.180170	0.095627	-0.164793	1.177040	0.037294	-0.228650	0.922652	0.091111	-0.180217	0.916113	0.119897	-0.184245	1.514561	0.074709	-0.241934	0.970822	0.126363	-0.243496	0.916616	0.129001	-0.218591	0.916767	0.142585	-0.202826	0.972091	0.148814	-0.191932	1.283796	0.154143	-0.231099	1.291644	0.108975	-0.237650	1.354771	0.111527	-0.193959	1.357890	0.151010	0.099995	1.445264	0.092664	0.050676	1.392118	0.135578	0.059562	1.443643	0.111094	0.108941	1.394130	0.108556	0.038148	1.489353	0.048838	0.053814	1.304394	0.092157	-0.148367	1.490318	0.083522	0.046679	1.414992	0.128246
4	0.040000	-0.013309	1.590851	-0.045793	-0.044189	1.358684	-0.109761	-0.197390	1.180162	0.095665	-0.164727	1.177059	0.037323	-0.228671	0.922636	0.091258	-0.180167	0.916084	0.119919	-0.184254	1.514529	0.074714	-0.241847	0.970793	0.126578	-0.243055	0.916587	0.129202	-0.218457	0.916743	0.142745	-0.202671	0.972049	0.148918	-0.191874	1.283761	0.154191	-0.231067	1.291630	0.109045	-0.237627	1.354756	0.111612	-0.193930	1.357872	0.151088	0.100000	1.445287	0.092682	0.050699	1.392130	0.135574	0.059577	1.443665	0.111081	0.108957	1.394139	0.108566	0.038140	1.489349	0.048822	0.053838	1.304400	0.092173	-0.148376	1.490327	0.083645	0.046703	1.414997	0.128239
5	0.050000	-0.013340	1.590826	-0.045819	-0.044193	1.358643	-0.109744	-0.197329	1.180153	0.095710	-0.164679	1.177071	0.037359	-0.228677	0.922616	0.091418	-0.180109	0.916053	0.119970	-0.184262	1.514499	0.074718	-0.241781	0.970773	0.126778	-0.242808	0.916588	0.129376	-0.218338	0.916738	0.142880	-0.202502	0.972033	0.148987	-0.191796	1.283769	0.154291	-0.231028	1.291622	0.109125	-0.237603	1.354742	0.111699	-0.193882	1.357860	0.151164	0.100050	1.445249	0.092582	0.050706	1.392146	0.135574	0.059579	1.443674	0.111076	0.108970	1.394170	0.108557	0.038133	1.489347	0.048808	0.053863	1.304407	0.092189	-0.148381	1.490331	0.083750	0.046746	1.414988	0.128204
6	0.060000	-0.013371	1.590806	-0.045837	-0.044196	1.358609	-0.109726	-0.197285	1.180145	0.095760	-0.164649	1.177077	0.037401	-0.228662	0.922594	0.091587	-0.180044	0.916024	0.120051	-0.184270	1.514471	0.074727	-0.241711	0.970758	0.126947	-0.242744	0.916555	0.129555	-0.218237	0.916722	0.143012	-0.202374	0.971852	0.149539	-0.191743	1.283757	0.154369	-0.230998	1.291603	0.109195	-0.237579	1.354716	0.111783	-0.193862	1.357846	0.151232	0.100024	1.445349	0.092683	0.050717	1.392169	0.135573	0.059603	1.443716	0.111078	0.108976	1.394198	0.108561	0.038126	1.489348	0.048799	0.053887	1.304417	0.092205	-0.148383	1.490331	0.083839	0.046691	1.415059	0.128281
7	0.070000	-0.013397	1.590791	-0.045851	-0.044196	1.358583	-0.109710	-0.197256	1.180135	0.095816	-0.164632	1.177074	0.037449	-0.228632	0.922567	0.091765	-0.179974	0.915994	0.120159	-0.184277	1.514448	0.074736	-0.241641	0.970748	0.127141	-0.242673	0.916560	0.129697	-0.218151	0.916724	0.143166	-0.202240	0.971853	0.149611	-0.191702	1.283758	0.154437	-0.230969	1.291600	0.109264	-0.237557	1.354707	0.111842	-0.193810	1.357850	0.151310	0.100017	1.445347	0.092662	0.050713	1.392196	0.135585	0.059592	1.443741	0.111061	0.108979	1.394228	0.108566	0.038121	1.489351	0.048794	0.053910	1.304428	0.092221	-0.148381	1.490326	0.083909	0.046725	1.415046	0.128228
8	0.080000	-0.013421	1.590782	-0.045857	-0.044196	1.358563	-0.109692	-0.197240	1.180123	0.095876	-0.164627	1.177064	0.037504	-0.228583	0.922538	0.091945	-0.179897	0.915965	0.120292	-0.184283	1.514428	0.074749	-0.241587	0.970742	0.127273	-0.242560	0.916530	0.129802	-0.218077	0.916780	0.143433	-0.202164	0.971823	0.149717	-0.191672	1.283759	0.154499	-0.230940	1.291588	0.109341	-0.237540	1.354687	0.111915	-0.193786	1.357827	0.151365	0.100034	1.445346	0.092608	0.050719	1.392214	0.135589	0.059581	1.443754	0.111078	0.108973	1.394254	0.108564	0.038117	1.489357	0.048793	0.053931	1.304439	0.092236	-0.148376	1.490316	0.083964	0.046703	1.415074	0.128265
9	0.090000	-0.013442	1.590776	-0.045857	-0.044196	1.358550	-0.109673	-0.197232	1.180110	0.095942	-0.164629	1.177047	0.037564	-0.228518	0.922508	0.092127	-0.179813	0.915937	0.120443	-0.184287	1.514413	0.074766	-0.241519	0.970746	0.127407	-0.242860	0.916576	0.129984	-0.218012	0.916767	0.143507	-0.202104	0.971818	0.149789	-0.191641	1.283749	0.154569	-0.230915	1.291576	0.109410	-0.237521	1.354680	0.111977	-0.193769	1.357841	0.151423	0.100025	1.445376	0.092615	0.050714	1.392235	0.135609	0.059576	1.443773	0.111079	0.108975	1.394274	0.108561	0.038113	1.489364	0.048797	0.053952	1.304452	0.092252	-0.148367	1.490302	0.084005	0.046714	1.415096	0.128281
10	0.100000	-0.013460	1.590775	-0.045853	-0.044195	1.358542	-0.109654	-0.197230	1.180094	0.096013	-0.164635	1.177023	0.037631	-0.228439	0.922474	0.092310	-0.179724	0.915910	0.120609	-0.184290	1.514402	0.074786	-0.241456	0.970723	0.127537	-0.242953	0.916577	0.130141	-0.218038	0.916760	0.143796	-0.202039	0.971802	0.149893	-0.191620	1.283730	0.154626	-0.230893	1.291559	0.109472	-0.237507	1.354656	0.112033	-0.193745	1.357797	0.151477	0.100033	1.445388	0.092615	0.050751	1.392243	0.135605	0.059583	1.443782	0.111082	0.108988	1.394310	0.108563	0.038111	1.489373	0.048804	0.053970	1.304464	0.092268	-0.148354	1.490283	0.084033	0.046699	1.415110	0.128314
11	0.110000	-0.013478	1.590776	-0.045842	-0.044199	1.358539	-0.109633	-0.197227	1.180076	0.096089	-0.164641	1.176995	0.037703	-0.228344	0.922441	0.092487	-0.179626	0.915885	0.120783	-0.184292	1.514393	0.074812	-0.241365	0.970710	0.127682	-0.242865	0.916565	0.130271	-0.217955	0.916760	0.143970	-0.201944	0.971797	0.150048	-0.191588	1.283723	0.154695	-0.230853	1.291546	0.109547	-0.237468	1.354645	0.112095	-0.193709	1.357787	0.151533	0.100031	1.445403	0.092614	0.050761	1.392260	0.135610	0.059590	1.443796	0.111100	0.109008	1.394325	0.108566	0.038109	1.489382	0.048814	0.053987	1.304476	0.092283	-0.148339	1.490261	0.084054	0.046710	1.415135	0.128325
12	0.120000	-0.013493	1.590779	-0.045829	-0.044202	1.358538	-0.109611	-0.197223	1.180055	0.096170	-0.164645	1.176960	0.037780	-0.228240	0.922406	0.092661	-0.179522	0.915861	0.120960	-0.184293	1.514387	0.074840	-0.241269	0.970677	0.127850	-0.242788	0.916532	0.130446	-0.217866	0.916738	0.144152	-0.201852	0.971780	0.150191	-0.191550	1.283694	0.154743	-0.230826	1.291522	0.109633	-0.237438	1.354612	0.112169	-0.193671	1.357761	0.151592	0.100044	1.445422	0.092622	0.050777	1.392265	0.135633	0.059606	1.443815	0.111086	0.109020	1.394343	0.108571	0.038108	1.489391	0.048826	0.054002	1.304487	0.092299	-0.148321	1.490235	0.084067	0.046732	1.415138	0.128322
13	0.130000	-0.013510	1.590782	-0.045812	-0.044211	1.358538	-0.109587	-0.197212	1.180031	0.096256	-0.164643	1.176922	0.037861	-0.228125	0.922371	0.092828	-0.179410	0.915839	0.121134	-0.184294	1.514382	0.074874	-0.241157	0.970656	0.128021	-0.242678	0.916517	0.130609	-0.217721	0.916718	0.144346	-0.201733	0.971769	0.150348	-0.191508	1.283681	0.154805	-0.230801	1.291496	0.109695	-0.237407	1.354600	0.112248	-0.193606	1.357749	0.151651	0.100050	1.445437	0.092623	0.050809	1.392290	0.135642	0.059612	1.443818	0.111111	0.109043	1.394369	0.108579	0.038106	1.489399	0.048840	0.054015	1.304497	0.092315	-0.148301	1.490206	0.084078	0.046758	1.415158	0.128342
14	0.140000	-0.013527	1.590784	-0.045794	-0.044223	1.358537	-0.109561	-0.197192	1.180004	0.096346	-0.164634	1.176881	0.037946	-0.228001	0.922336	0.092987	-0.179288	0.915819	0.121300	-0.184294	1.514377	0.074913	-0.241040	0.970610	0.128207	-0.242567	0.916477	0.130776	-0.217580	0.916683	0.144549	-0.201593	0.971748	0.150487	-0.191473	1.283654	0.154878	-0.230786	1.291467	0.109764	-0.237395	1.354568	0.112329	-0.193573	1.357723	0.151707	0.100064	1.445449	0.092634	0.050822	1.392291	0.135651	0.059627	1.443835	0.111118	0.109057	1.394379	0.108584	0.038104	1.489405	0.048854	0.054028	1.304506	0.092331	-0.148281	1.490176	0.084088	0.046770	1.415161	0.128353
15	0.150000	-0.013546	1.590784	-0.045776	-0.044238	1.358534	-0.109534	-0.197161	1.179973	0.096441	-0.164617	1.176838	0.038034	-0.227872	0.922299	0.093140	-0.179158	0.915800	0.121455	-0.184294	1.514372	0.074953	-0.240911	0.970586	0.128381	-0.242460	0.916481	0.131054	-0.217451	0.916567	0.144638	-0.201460	0.971725	0.150596	-0.191427	1.283625	0.154940	-0.230756	1.291442	0.109843	-0.237383	1.354541	0.112399	-0.193538	1.357708	0.151757	0.100057	1.445462	0.092645	0.050835	1.392298	0.135672	0.059628	1.443828	0.111107	0.109067	1.394397	0.108598	0.038102	1.489410	0.048868	0.054040	1.304512	0.092348	-0.148259	1.490143	0.084099	0.046795	1.415160	0.128362
16	0.160000	-0.013569	1.590782	-0.045757	-0.044260	1.358528	-0.109504	-0.197118	1.179940	0.096539	-0.164590	1.176794	0.038123	-0.227734	0.922264	0.093283	-0.179016	0.915784	0.121597	-0.184295	1.514365	0.075000	-0.240775	0.970552	0.128563	-0.241834	0.916355	0.131136	-0.217301	0.916548	0.144822	-0.201308	0.971703	0.150718	-0.191387	1.283612	0.155019	-0.230732	1.291391	0.109923	-0.237334	1.354509	0.112475	-0.193490	1.357677	0.151810	0.100067	1.445465	0.092652	0.050861	1.392294	0.135685	0.059705	1.443878	0.111174	0.109078	1.394392	0.108608	0.038099	1.489413	0.048882	0.054052	1.304517	0.092365	-0.148239	1.490110	0.084116	0.046748	1.415175	0.128381
17	0.170000	-0.013593	1.590777	-0.045741	-0.044282	1.358519	-0.109474	-0.197063	1.179904	0.096640	-0.164554	1.176749	0.038215	-0.227593	0.922226	0.093422	-0.178865	0.915769	0.121723	-0.184296	1.514356	0.075047	-0.240629	0.970526	0.128728	-0.241680	0.916325	0.131335	-0.217131	0.916528	0.144981	-0.201161	0.971688	0.150853	-0.191321	1.283592	0.155085	-0.230653	1.291380	0.110027	-0.237303	1.354486	0.112556	-0.193437	1.357658	0.151876	0.100069	1.445464	0.092666	0.050869	1.392301	0.135718	0.059710	1.443883	0.111180	0.109082	1.394391	0.108614	0.038095	1.489414	0.048894	0.054064	1.304520	0.092381	-0.148218	1.490076	0.084135	0.046775	1.415178	0.128397
